<svg viewBox="0 0 480 480" xmlns="http://www.w3.org/2000/svg">
<rect width="480" height="480" fill="#F7F4EE"/>
<circle cx="20" cy="20" r="1.1" fill="#1B1E2A" opacity="0.08"/>
<circle cx="20" cy="50" r="1.1" fill="#1B1E2A" opacity="0.08"/>
<circle cx="20" cy="80" r="1.1" fill="#1B1E2A" opacity="0.08"/>
<circle cx="20" cy="110" r="1.1" fill="#1B1E2A" opacity="0.08"/>
<circle cx="20" cy="140" r="1.1" fill="#1B1E2A" opacity="0.08"/>
<circle cx="20" cy="170" r="1.1" fill="#1B1E2A" opacity="0.08"/>
<circle cx="20" cy="200" r="1.1" fill="#1B1E2A" opacity="0.08"/>
<circle cx="20" cy="230" r="1.1" fill="#1B1E2A" opacity="0.08"/>
<circle cx="20" cy="260" r="1.1" fill="#1B1E2A" opacity="0.08"/>
<circle cx="20" cy="290" r="1.1" fill="#1B1E2A" opacity="0.08"/>
<circle cx="20" cy="320" r="1.1" fill="#1B1E2A" opacity="0.08"/>
<circle cx="20" cy="350" r="1.1" fill="#1B1E2A" opacity="0.08"/>
<circle cx="20" cy="380" r="1.1" fill="#1B1E2A" opacity="0.08"/>
<circle cx="20" cy="410" r="1.1" fill="#1B1E2A" opacity="0.08"/>
<circle cx="20" cy="440" r="1.1" fill="#1B1E2A" opacity="0.08"/>
<circle cx="50" cy="20" r="1.1" fill="#1B1E2A" opacity="0.08"/>
<circle cx="50" cy="50" r="1.1" fill="#1B1E2A" opacity="0.08"/>
<circle cx="50" cy="80" r="1.1" fill="#1B1E2A" opacity="0.08"/>
<circle cx="50" cy="110" r="1.1" fill="#1B1E2A" opacity="0.08"/>
<circle cx="50" cy="140" r="1.1" fill="#1B1E2A" opacity="0.08"/>
<circle cx="50" cy="170" r="1.1" fill="#1B1E2A" opacity="0.08"/>
<circle cx="50" cy="200" r="1.1" fill="#1B1E2A" opacity="0.08"/>
<circle cx="50" cy="230" r="1.1" fill="#1B1E2A" opacity="0.08"/>
<circle cx="50" cy="260" r="1.1" fill="#1B1E2A" opacity="0.08"/>
<circle cx="50" cy="290" r="1.1" fill="#1B1E2A" opacity="0.08"/>
<circle cx="50" cy="320" r="1.1" fill="#1B1E2A" opacity="0.08"/>
<circle cx="50" cy="350" r="1.1" fill="#1B1E2A" opacity="0.08"/>
<circle cx="50" cy="380" r="1.1" fill="#1B1E2A" opacity="0.08"/>
<circle cx="50" cy="410" r="1.1" fill="#1B1E2A" opacity="0.08"/>
<circle cx="50" cy="440" r="1.1" fill="#1B1E2A" opacity="0.08"/>
<circle cx="80" cy="20" r="1.1" fill="#1B1E2A" opacity="0.08"/>
<circle cx="80" cy="50" r="1.1" fill="#1B1E2A" opacity="0.08"/>
<circle cx="80" cy="80" r="1.1" fill="#1B1E2A" opacity="0.08"/>
<circle cx="80" cy="110" r="1.1" fill="#1B1E2A" opacity="0.08"/>
<circle cx="80" cy="140" r="1.1" fill="#1B1E2A" opacity="0.08"/>
<circle cx="80" cy="170" r="1.1" fill="#1B1E2A" opacity="0.08"/>
<circle cx="80" cy="200" r="1.1" fill="#1B1E2A" opacity="0.08"/>
<circle cx="80" cy="230" r="1.1" fill="#1B1E2A" opacity="0.08"/>
<circle cx="80" cy="260" r="1.1" fill="#1B1E2A" opacity="0.08"/>
<circle cx="80" cy="290" r="1.1" fill="#1B1E2A" opacity="0.08"/>
<circle cx="80" cy="320" r="1.1" fill="#1B1E2A" opacity="0.08"/>
<circle cx="80" cy="350" r="1.1" fill="#1B1E2A" opacity="0.08"/>
<circle cx="80" cy="380" r="1.1" fill="#1B1E2A" opacity="0.08"/>
<circle cx="80" cy="410" r="1.1" fill="#1B1E2A" opacity="0.08"/>
<circle cx="80" cy="440" r="1.1" fill="#1B1E2A" opacity="0.08"/>
<circle cx="110" cy="20" r="1.1" fill="#1B1E2A" opacity="0.08"/>
<circle cx="110" cy="50" r="1.1" fill="#1B1E2A" opacity="0.08"/>
<circle cx="110" cy="80" r="1.1" fill="#1B1E2A" opacity="0.08"/>
<circle cx="110" cy="110" r="1.1" fill="#1B1E2A" opacity="0.08"/>
<circle cx="110" cy="140" r="1.1" fill="#1B1E2A" opacity="0.08"/>
<circle cx="110" cy="170" r="1.1" fill="#1B1E2A" opacity="0.08"/>
<circle cx="110" cy="200" r="1.1" fill="#1B1E2A" opacity="0.08"/>
<circle cx="110" cy="230" r="1.1" fill="#1B1E2A" opacity="0.08"/>
<circle cx="110" cy="260" r="1.1" fill="#1B1E2A" opacity="0.08"/>
<circle cx="110" cy="290" r="1.1" fill="#1B1E2A" opacity="0.08"/>
<circle cx="110" cy="320" r="1.1" fill="#1B1E2A" opacity="0.08"/>
<circle cx="110" cy="350" r="1.1" fill="#1B1E2A" opacity="0.08"/>
<circle cx="110" cy="380" r="1.1" fill="#1B1E2A" opacity="0.08"/>
<circle cx="110" cy="410" r="1.1" fill="#1B1E2A" opacity="0.08"/>
<circle cx="110" cy="440" r="1.1" fill="#1B1E2A" opacity="0.08"/>
<circle cx="140" cy="20" r="1.1" fill="#1B1E2A" opacity="0.08"/>
<circle cx="140" cy="50" r="1.1" fill="#1B1E2A" opacity="0.08"/>
<circle cx="140" cy="80" r="1.1" fill="#1B1E2A" opacity="0.08"/>
<circle cx="140" cy="110" r="1.1" fill="#1B1E2A" opacity="0.08"/>
<circle cx="140" cy="140" r="1.1" fill="#1B1E2A" opacity="0.08"/>
<circle cx="140" cy="170" r="1.1" fill="#1B1E2A" opacity="0.08"/>
<circle cx="140" cy="200" r="1.1" fill="#1B1E2A" opacity="0.08"/>
<circle cx="140" cy="230" r="1.1" fill="#1B1E2A" opacity="0.08"/>
<circle cx="140" cy="260" r="1.1" fill="#1B1E2A" opacity="0.08"/>
<circle cx="140" cy="290" r="1.1" fill="#1B1E2A" opacity="0.08"/>
<circle cx="140" cy="320" r="1.1" fill="#1B1E2A" opacity="0.08"/>
<circle cx="140" cy="350" r="1.1" fill="#1B1E2A" opacity="0.08"/>
<circle cx="140" cy="380" r="1.1" fill="#1B1E2A" opacity="0.08"/>
<circle cx="140" cy="410" r="1.1" fill="#1B1E2A" opacity="0.08"/>
<circle cx="140" cy="440" r="1.1" fill="#1B1E2A" opacity="0.08"/>
<circle cx="170" cy="20" r="1.1" fill="#1B1E2A" opacity="0.08"/>
<circle cx="170" cy="50" r="1.1" fill="#1B1E2A" opacity="0.08"/>
<circle cx="170" cy="80" r="1.1" fill="#1B1E2A" opacity="0.08"/>
<circle cx="170" cy="110" r="1.1" fill="#1B1E2A" opacity="0.08"/>
<circle cx="170" cy="140" r="1.1" fill="#1B1E2A" opacity="0.08"/>
<circle cx="170" cy="170" r="1.1" fill="#1B1E2A" opacity="0.08"/>
<circle cx="170" cy="200" r="1.1" fill="#1B1E2A" opacity="0.08"/>
<circle cx="170" cy="230" r="1.1" fill="#1B1E2A" opacity="0.08"/>
<circle cx="170" cy="260" r="1.1" fill="#1B1E2A" opacity="0.08"/>
<circle cx="170" cy="290" r="1.1" fill="#1B1E2A" opacity="0.08"/>
<circle cx="170" cy="320" r="1.1" fill="#1B1E2A" opacity="0.08"/>
<circle cx="170" cy="350" r="1.1" fill="#1B1E2A" opacity="0.08"/>
<circle cx="170" cy="380" r="1.1" fill="#1B1E2A" opacity="0.08"/>
<circle cx="170" cy="410" r="1.1" fill="#1B1E2A" opacity="0.08"/>
<circle cx="170" cy="440" r="1.1" fill="#1B1E2A" opacity="0.08"/>
<circle cx="200" cy="20" r="1.1" fill="#1B1E2A" opacity="0.08"/>
<circle cx="200" cy="50" r="1.1" fill="#1B1E2A" opacity="0.08"/>
<circle cx="200" cy="80" r="1.1" fill="#1B1E2A" opacity="0.08"/>
<circle cx="200" cy="110" r="1.1" fill="#1B1E2A" opacity="0.08"/>
<circle cx="200" cy="140" r="1.1" fill="#1B1E2A" opacity="0.08"/>
<circle cx="200" cy="170" r="1.1" fill="#1B1E2A" opacity="0.08"/>
<circle cx="200" cy="200" r="1.1" fill="#1B1E2A" opacity="0.08"/>
<circle cx="200" cy="230" r="1.1" fill="#1B1E2A" opacity="0.08"/>
<circle cx="200" cy="260" r="1.1" fill="#1B1E2A" opacity="0.08"/>
<circle cx="200" cy="290" r="1.1" fill="#1B1E2A" opacity="0.08"/>
<circle cx="200" cy="320" r="1.1" fill="#1B1E2A" opacity="0.08"/>
<circle cx="200" cy="350" r="1.1" fill="#1B1E2A" opacity="0.08"/>
<circle cx="200" cy="380" r="1.1" fill="#1B1E2A" opacity="0.08"/>
<circle cx="200" cy="410" r="1.1" fill="#1B1E2A" opacity="0.08"/>
<circle cx="200" cy="440" r="1.1" fill="#1B1E2A" opacity="0.08"/>
<circle cx="230" cy="20" r="1.1" fill="#1B1E2A" opacity="0.08"/>
<circle cx="230" cy="50" r="1.1" fill="#1B1E2A" opacity="0.08"/>
<circle cx="230" cy="80" r="1.1" fill="#1B1E2A" opacity="0.08"/>
<circle cx="230" cy="110" r="1.1" fill="#1B1E2A" opacity="0.08"/>
<circle cx="230" cy="140" r="1.1" fill="#1B1E2A" opacity="0.08"/>
<circle cx="230" cy="170" r="1.1" fill="#1B1E2A" opacity="0.08"/>
<circle cx="230" cy="200" r="1.1" fill="#1B1E2A" opacity="0.08"/>
<circle cx="230" cy="230" r="1.1" fill="#1B1E2A" opacity="0.08"/>
<circle cx="230" cy="260" r="1.1" fill="#1B1E2A" opacity="0.08"/>
<circle cx="230" cy="290" r="1.1" fill="#1B1E2A" opacity="0.08"/>
<circle cx="230" cy="320" r="1.1" fill="#1B1E2A" opacity="0.08"/>
<circle cx="230" cy="350" r="1.1" fill="#1B1E2A" opacity="0.08"/>
<circle cx="230" cy="380" r="1.1" fill="#1B1E2A" opacity="0.08"/>
<circle cx="230" cy="410" r="1.1" fill="#1B1E2A" opacity="0.08"/>
<circle cx="230" cy="440" r="1.1" fill="#1B1E2A" opacity="0.08"/>
<circle cx="260" cy="20" r="1.1" fill="#1B1E2A" opacity="0.08"/>
<circle cx="260" cy="50" r="1.1" fill="#1B1E2A" opacity="0.08"/>
<circle cx="260" cy="80" r="1.1" fill="#1B1E2A" opacity="0.08"/>
<circle cx="260" cy="110" r="1.1" fill="#1B1E2A" opacity="0.08"/>
<circle cx="260" cy="140" r="1.1" fill="#1B1E2A" opacity="0.08"/>
<circle cx="260" cy="170" r="1.1" fill="#1B1E2A" opacity="0.08"/>
<circle cx="260" cy="200" r="1.1" fill="#1B1E2A" opacity="0.08"/>
<circle cx="260" cy="230" r="1.1" fill="#1B1E2A" opacity="0.08"/>
<circle cx="260" cy="260" r="1.1" fill="#1B1E2A" opacity="0.08"/>
<circle cx="260" cy="290" r="1.1" fill="#1B1E2A" opacity="0.08"/>
<circle cx="260" cy="320" r="1.1" fill="#1B1E2A" opacity="0.08"/>
<circle cx="260" cy="350" r="1.1" fill="#1B1E2A" opacity="0.08"/>
<circle cx="260" cy="380" r="1.1" fill="#1B1E2A" opacity="0.08"/>
<circle cx="260" cy="410" r="1.1" fill="#1B1E2A" opacity="0.08"/>
<circle cx="260" cy="440" r="1.1" fill="#1B1E2A" opacity="0.08"/>
<circle cx="290" cy="20" r="1.1" fill="#1B1E2A" opacity="0.08"/>
<circle cx="290" cy="50" r="1.1" fill="#1B1E2A" opacity="0.08"/>
<circle cx="290" cy="80" r="1.1" fill="#1B1E2A" opacity="0.08"/>
<circle cx="290" cy="110" r="1.1" fill="#1B1E2A" opacity="0.08"/>
<circle cx="290" cy="140" r="1.1" fill="#1B1E2A" opacity="0.08"/>
<circle cx="290" cy="170" r="1.1" fill="#1B1E2A" opacity="0.08"/>
<circle cx="290" cy="200" r="1.1" fill="#1B1E2A" opacity="0.08"/>
<circle cx="290" cy="230" r="1.1" fill="#1B1E2A" opacity="0.08"/>
<circle cx="290" cy="260" r="1.1" fill="#1B1E2A" opacity="0.08"/>
<circle cx="290" cy="290" r="1.1" fill="#1B1E2A" opacity="0.08"/>
<circle cx="290" cy="320" r="1.1" fill="#1B1E2A" opacity="0.08"/>
<circle cx="290" cy="350" r="1.1" fill="#1B1E2A" opacity="0.08"/>
<circle cx="290" cy="380" r="1.1" fill="#1B1E2A" opacity="0.08"/>
<circle cx="290" cy="410" r="1.1" fill="#1B1E2A" opacity="0.08"/>
<circle cx="290" cy="440" r="1.1" fill="#1B1E2A" opacity="0.08"/>
<circle cx="320" cy="20" r="1.1" fill="#1B1E2A" opacity="0.08"/>
<circle cx="320" cy="50" r="1.1" fill="#1B1E2A" opacity="0.08"/>
<circle cx="320" cy="80" r="1.1" fill="#1B1E2A" opacity="0.08"/>
<circle cx="320" cy="110" r="1.1" fill="#1B1E2A" opacity="0.08"/>
<circle cx="320" cy="140" r="1.1" fill="#1B1E2A" opacity="0.08"/>
<circle cx="320" cy="170" r="1.1" fill="#1B1E2A" opacity="0.08"/>
<circle cx="320" cy="200" r="1.1" fill="#1B1E2A" opacity="0.08"/>
<circle cx="320" cy="230" r="1.1" fill="#1B1E2A" opacity="0.08"/>
<circle cx="320" cy="260" r="1.1" fill="#1B1E2A" opacity="0.08"/>
<circle cx="320" cy="290" r="1.1" fill="#1B1E2A" opacity="0.08"/>
<circle cx="320" cy="320" r="1.1" fill="#1B1E2A" opacity="0.08"/>
<circle cx="320" cy="350" r="1.1" fill="#1B1E2A" opacity="0.08"/>
<circle cx="320" cy="380" r="1.1" fill="#1B1E2A" opacity="0.08"/>
<circle cx="320" cy="410" r="1.1" fill="#1B1E2A" opacity="0.08"/>
<circle cx="320" cy="440" r="1.1" fill="#1B1E2A" opacity="0.08"/>
<circle cx="350" cy="20" r="1.1" fill="#1B1E2A" opacity="0.08"/>
<circle cx="350" cy="50" r="1.1" fill="#1B1E2A" opacity="0.08"/>
<circle cx="350" cy="80" r="1.1" fill="#1B1E2A" opacity="0.08"/>
<circle cx="350" cy="110" r="1.1" fill="#1B1E2A" opacity="0.08"/>
<circle cx="350" cy="140" r="1.1" fill="#1B1E2A" opacity="0.08"/>
<circle cx="350" cy="170" r="1.1" fill="#1B1E2A" opacity="0.08"/>
<circle cx="350" cy="200" r="1.1" fill="#1B1E2A" opacity="0.08"/>
<circle cx="350" cy="230" r="1.1" fill="#1B1E2A" opacity="0.08"/>
<circle cx="350" cy="260" r="1.1" fill="#1B1E2A" opacity="0.08"/>
<circle cx="350" cy="290" r="1.1" fill="#1B1E2A" opacity="0.08"/>
<circle cx="350" cy="320" r="1.1" fill="#1B1E2A" opacity="0.08"/>
<circle cx="350" cy="350" r="1.1" fill="#1B1E2A" opacity="0.08"/>
<circle cx="350" cy="380" r="1.1" fill="#1B1E2A" opacity="0.08"/>
<circle cx="350" cy="410" r="1.1" fill="#1B1E2A" opacity="0.08"/>
<circle cx="350" cy="440" r="1.1" fill="#1B1E2A" opacity="0.08"/>
<circle cx="380" cy="20" r="1.1" fill="#1B1E2A" opacity="0.08"/>
<circle cx="380" cy="50" r="1.1" fill="#1B1E2A" opacity="0.08"/>
<circle cx="380" cy="80" r="1.1" fill="#1B1E2A" opacity="0.08"/>
<circle cx="380" cy="110" r="1.1" fill="#1B1E2A" opacity="0.08"/>
<circle cx="380" cy="140" r="1.1" fill="#1B1E2A" opacity="0.08"/>
<circle cx="380" cy="170" r="1.1" fill="#1B1E2A" opacity="0.08"/>
<circle cx="380" cy="200" r="1.1" fill="#1B1E2A" opacity="0.08"/>
<circle cx="380" cy="230" r="1.1" fill="#1B1E2A" opacity="0.08"/>
<circle cx="380" cy="260" r="1.1" fill="#1B1E2A" opacity="0.08"/>
<circle cx="380" cy="290" r="1.1" fill="#1B1E2A" opacity="0.08"/>
<circle cx="380" cy="320" r="1.1" fill="#1B1E2A" opacity="0.08"/>
<circle cx="380" cy="350" r="1.1" fill="#1B1E2A" opacity="0.08"/>
<circle cx="380" cy="380" r="1.1" fill="#1B1E2A" opacity="0.08"/>
<circle cx="380" cy="410" r="1.1" fill="#1B1E2A" opacity="0.08"/>
<circle cx="380" cy="440" r="1.1" fill="#1B1E2A" opacity="0.08"/>
<circle cx="410" cy="20" r="1.1" fill="#1B1E2A" opacity="0.08"/>
<circle cx="410" cy="50" r="1.1" fill="#1B1E2A" opacity="0.08"/>
<circle cx="410" cy="80" r="1.1" fill="#1B1E2A" opacity="0.08"/>
<circle cx="410" cy="110" r="1.1" fill="#1B1E2A" opacity="0.08"/>
<circle cx="410" cy="140" r="1.1" fill="#1B1E2A" opacity="0.08"/>
<circle cx="410" cy="170" r="1.1" fill="#1B1E2A" opacity="0.08"/>
<circle cx="410" cy="200" r="1.1" fill="#1B1E2A" opacity="0.08"/>
<circle cx="410" cy="230" r="1.1" fill="#1B1E2A" opacity="0.08"/>
<circle cx="410" cy="260" r="1.1" fill="#1B1E2A" opacity="0.08"/>
<circle cx="410" cy="290" r="1.1" fill="#1B1E2A" opacity="0.08"/>
<circle cx="410" cy="320" r="1.1" fill="#1B1E2A" opacity="0.08"/>
<circle cx="410" cy="350" r="1.1" fill="#1B1E2A" opacity="0.08"/>
<circle cx="410" cy="380" r="1.1" fill="#1B1E2A" opacity="0.08"/>
<circle cx="410" cy="410" r="1.1" fill="#1B1E2A" opacity="0.08"/>
<circle cx="410" cy="440" r="1.1" fill="#1B1E2A" opacity="0.08"/>
<circle cx="440" cy="20" r="1.1" fill="#1B1E2A" opacity="0.08"/>
<circle cx="440" cy="50" r="1.1" fill="#1B1E2A" opacity="0.08"/>
<circle cx="440" cy="80" r="1.1" fill="#1B1E2A" opacity="0.08"/>
<circle cx="440" cy="110" r="1.1" fill="#1B1E2A" opacity="0.08"/>
<circle cx="440" cy="140" r="1.1" fill="#1B1E2A" opacity="0.08"/>
<circle cx="440" cy="170" r="1.1" fill="#1B1E2A" opacity="0.08"/>
<circle cx="440" cy="200" r="1.1" fill="#1B1E2A" opacity="0.08"/>
<circle cx="440" cy="230" r="1.1" fill="#1B1E2A" opacity="0.08"/>
<circle cx="440" cy="260" r="1.1" fill="#1B1E2A" opacity="0.08"/>
<circle cx="440" cy="290" r="1.1" fill="#1B1E2A" opacity="0.08"/>
<circle cx="440" cy="320" r="1.1" fill="#1B1E2A" opacity="0.08"/>
<circle cx="440" cy="350" r="1.1" fill="#1B1E2A" opacity="0.08"/>
<circle cx="440" cy="380" r="1.1" fill="#1B1E2A" opacity="0.08"/>
<circle cx="440" cy="410" r="1.1" fill="#1B1E2A" opacity="0.08"/>
<circle cx="440" cy="440" r="1.1" fill="#1B1E2A" opacity="0.08"/>

<rect x="16" y="16" width="448" height="448" fill="none" stroke="#1B1E2A" stroke-width="1" opacity="0.15"/>
<line x1="16" y1="34" x2="34" y2="16" stroke="#AB8A4C" stroke-width="2"/>
<line x1="446" y1="16" x2="464" y2="34" stroke="#AB8A4C" stroke-width="2"/>
<line x1="16" y1="446" x2="34" y2="464" stroke="#AB8A4C" stroke-width="2"/>
<line x1="446" y1="464" x2="464" y2="446" stroke="#AB8A4C" stroke-width="2"/>
<g stroke="#1B1E2A" stroke-width="5" fill="none" stroke-linecap="round" stroke-linejoin="round">

<path d="M170 340 Q240 260 310 340" />
<ellipse cx="240" cy="180" rx="80" ry="60" fill="#AB8A4C" opacity="0.25"/>
<line x1="240" y1="240" x2="240" y2="300" stroke-width="6"/>
<ellipse cx="240" cy="345" rx="70" ry="14"/>

</g>
<text x="240" y="450" text-anchor="middle" font-family="monospace" font-size="13" fill="#1B1E2A" opacity="0.55" letter-spacing="1">DIM. TOUCH  H 260</text>
</svg>